<svg
   version="1.1"
   id="svg1"
   width="2048"
   height="2048"
   viewBox="0 0 2048 2048"
   xmlns="http://www.w3.org/2000/svg"
   xmlns:svg="http://www.w3.org/2000/svg">
  <defs
     id="defs1" />
  <g
     id="g1">
    <path
       style="fill:#000000"
       d="m 625.39569,1087.2647 c 0.48883,-304.28689 0.0772,-283.76909 6.11446,-304.77815 C 632.93048,777.54395 636.70809,768.1 639.90483,761.5 658.16069,723.80898 690.7565,697.31742 732,686.65158 743.76021,683.61031 763.43219,681 774.59174,681 H 783 v 270.50588 270.50592 l 81.25,-0.2559 81.25,-0.2559 0.25182,-270.57997 0.25182,-270.57997 164.74816,0.08 c 153.6848,0.0746 165.5109,0.20111 176.1051,1.88391 45.8928,7.28966 81.7051,25.05523 112.1592,55.63934 34.278,34.42435 53.5183,79.03917 55.6292,128.99368 1.6253,38.46317 -9.8967,81.27241 -30.4307,113.06304 -6.6755,10.33487 -19.4993,25.96997 -28.945,35.29037 l -7.895,7.7903 10.271,10.4975 c 27.5296,28.1368 45.5259,61.4456 52.8245,97.772 4.393,21.864 5.4715,39.9033 3.4939,58.4392 -8.364,78.3966 -58.1532,141.711 -130.2629,165.6485 -5.9393,1.9716 -17.4143,5.0337 -25.5,6.8046 l -14.7011,3.2198 -329.27607,0.2835 -329.27607,0.2836 z m 576.10431,133.8407 45,-0.6717 7.691,-3.087 c 19.3591,-7.7702 33.3687,-23.4308 38.294,-42.8068 1.9409,-7.6355 1.944,-22.4248 0.01,-30.0798 -5.1076,-20.1782 -21.2567,-37.2165 -41.913,-44.2208 l -8.0784,-2.7393 -69.75,-0.2824 -69.75,-0.2824 v 61.8657 c 0,34.0262 0.3,62.1658 0.6667,62.5324 0.7854,0.7854 35.3404,0.7049 97.8333,-0.2279 z m 42.2922,-272.67151 c 23.5775,-4.79058 42.8119,-22.91962 48.7346,-45.93389 2.0651,-8.02463 2.0488,-22.48319 -0.035,-30.55665 -5.9953,-23.23383 -26.3954,-42.12623 -49.5434,-45.88192 -4.0245,-0.65298 -31.5424,-1.04916 -73.1989,-1.05388 L 1103,825 v 62.5 62.5 h 66.5422 c 56.4492,0 67.7112,-0.23754 74.25,-1.56611 z"
       id="path1" />
  </g>
</svg>
